<svg version="1.1" viewBox="0.0 0.0 100.37795275590551 174.10761154855643" fill="none" stroke="none" stroke-linecap="square" stroke-miterlimit="10" xmlns:xlink="http://www.w3.org/1999/xlink" xmlns="http://www.w3.org/2000/svg"><clipPath id="p.0"><path d="m0 0l100.37795 0l0 174.1076l-100.37795 0l0 -174.1076z" clip-rule="nonzero"/></clipPath><g clip-path="url(#p.0)"><path fill="#000000" fill-opacity="0.0" d="m0 0l100.37795 0l0 174.1076l-100.37795 0z" fill-rule="evenodd"/><path fill="#0000ff" d="m32.68019 18.251968l0 0c0 -10.080284 8.157585 -18.251968 18.220474 -18.251968l0 0c4.8323708 0 9.46682 1.9229697 12.88382 5.3458776c3.4169998 3.4229078 5.3366547 8.065368 5.3366547 12.906091l0 0c0 10.080284 -8.157585 18.251968 -18.220474 18.251968l0 0c-10.062889 0 -18.220474 -8.171684 -18.220474 -18.251968z" fill-rule="evenodd"/><path stroke="#000000" stroke-width="1.0" stroke-linejoin="round" stroke-linecap="butt" d="m32.68019 18.251968l0 0c0 -10.080284 8.157585 -18.251968 18.220474 -18.251968l0 0c4.8323708 0 9.46682 1.9229697 12.88382 5.3458776c3.4169998 3.4229078 5.3366547 8.065368 5.3366547 12.906091l0 0c0 10.080284 -8.157585 18.251968 -18.220474 18.251968l0 0c-10.062889 0 -18.220474 -8.171684 -18.220474 -18.251968z" fill-rule="evenodd"/><path fill="#000000" fill-opacity="0.0" d="m50.900665 36.503937l0.18897629 48.15748" fill-rule="evenodd"/><path stroke="#666666" stroke-width="4.0" stroke-linejoin="round" stroke-linecap="butt" d="m50.900665 36.503937l0.18897629 48.15748" fill-rule="evenodd"/><path fill="#000000" fill-opacity="0.0" d="m50.608307 84.13655l-46.929134 42.960632" fill-rule="evenodd"/><path stroke="#666666" stroke-width="4.0" stroke-linejoin="round" stroke-linecap="butt" d="m50.608307 84.13655l-46.929134 42.960632" fill-rule="evenodd"/><path fill="#000000" fill-opacity="0.0" d="m50.83545 84.13655l46.92913 42.960632" fill-rule="evenodd"/><path stroke="#666666" stroke-width="4.0" stroke-linejoin="round" stroke-linecap="butt" d="m50.83545 84.13655l46.92913 42.960632" fill-rule="evenodd"/><path fill="#cfe2f3" d="m7.3490816E-4 125.627014l100.0315 0l0 48.15747l-100.0315 0z" fill-rule="evenodd"/><path stroke="#000000" stroke-width="1.0" stroke-linejoin="round" stroke-linecap="butt" d="m7.3490816E-4 125.627014l100.0315 0l0 48.15747l-100.0315 0z" fill-rule="evenodd"/><path fill="#cfe2f3" d="m40.67573 115.995514l0 0c0 -4.105171 3.2291908 -7.4330673 7.2126007 -7.4330673l0 0c1.912899 0 3.7474518 0.7831192 5.100075 2.1770935c1.3526268 1.3939743 2.1125221 3.2845993 2.1125221 5.255974l0 0c0 4.105171 -3.2291908 7.433075 -7.212597 7.433075l0 0c-3.98341 0 -7.2126007 -3.3279037 -7.2126007 -7.433075z" fill-rule="evenodd"/><path stroke="#000000" stroke-width="1.0" stroke-linejoin="round" stroke-linecap="butt" d="m40.67573 115.995514l0 0c0 -4.105171 3.2291908 -7.4330673 7.2126007 -7.4330673l0 0c1.912899 0 3.7474518 0.7831192 5.100075 2.1770935c1.3526268 1.3939743 2.1125221 3.2845993 2.1125221 5.255974l0 0c0 4.105171 -3.2291908 7.433075 -7.212597 7.433075l0 0c-3.98341 0 -7.2126007 -3.3279037 -7.2126007 -7.433075z" fill-rule="evenodd"/><path fill="#000000" fill-opacity="0.0" d="m47.888332 123.42859l2.1417313 2.2047195" fill-rule="evenodd"/><path stroke="#9900ff" stroke-width="1.0" stroke-linejoin="round" stroke-linecap="butt" d="m47.888332 123.42859l2.1417313 2.2047195" fill-rule="evenodd"/><path fill="#cfe2f3" d="m54.17106 119.193756l0 -2.6456757l-3.4330711 2.6456757z" fill-rule="evenodd"/><path stroke="#000000" stroke-width="1.0" stroke-linejoin="round" stroke-linecap="butt" d="m54.17106 119.193756l0 -2.6456757l-3.4330711 2.6456757z" fill-rule="evenodd"/><path fill="#000000" fill-opacity="0.0" d="m52.45452 117.87092l1.3228378 0.9133835" fill-rule="evenodd"/><path stroke="#000000" stroke-width="1.0" stroke-linejoin="round" stroke-linecap="butt" d="m52.45452 117.87092l1.3228378 0.9133835" fill-rule="evenodd"/><path fill="#000000" d="m48.414745 114.25129l0 0c0 -0.7305832 0.5781517 -1.3228302 1.2913399 -1.3228302l0 0c0.34248352 0 0.6709404 0.13936615 0.91311264 0.38744354c0.24217606 0.24808502 0.37822723 0.58454895 0.37822723 0.93538666l0 0c0 0.7305832 -0.5781517 1.3228378 -1.2913399 1.3228378l0 0c-0.7131882 0 -1.2913399 -0.59225464 -1.2913399 -1.3228378z" fill-rule="evenodd"/><path stroke="#000000" stroke-width="1.0" stroke-linejoin="round" stroke-linecap="butt" d="m48.414745 114.25129l0 0c0 -0.7305832 0.5781517 -1.3228302 1.2913399 -1.3228302l0 0c0.34248352 0 0.6709404 0.13936615 0.91311264 0.38744354c0.24217606 0.24808502 0.37822723 0.58454895 0.37822723 0.93538666l0 0c0 0.7305832 -0.5781517 1.3228378 -1.2913399 1.3228378l0 0c-0.7131882 0 -1.2913399 -0.59225464 -1.2913399 -1.3228378z" fill-rule="evenodd"/><path fill="#ffff00" d="m42.87632 105.3206l5.653534 -3.3203888l5.65353 3.3203888l-2.1594582 5.372505l-6.9881477 0z" fill-rule="evenodd"/><path stroke="#000000" stroke-width="1.0" stroke-linejoin="round" stroke-linecap="butt" d="m42.87632 105.3206l5.653534 -3.3203888l5.65353 3.3203888l-2.1594582 5.372505l-6.9881477 0z" fill-rule="evenodd"/></g></svg>